
<?xml version="1.0" encoding="utf-8"?>
<!DOCTYPE svg PUBLIC "-//W3C//DTD SVG 1.1//EN" "http://www.w3.org/Graphics/SVG/1.1/DTD/svg11.dtd">
<svg version="1.1" style="display: none;" xmlns="http://www.w3.org/2000/svg" xmlns:xlink="http://www.w3.org/1999/xlink" x="0px" y="0px" width="80px" height="80px" viewBox="0 0 80 80" enable-background="new 0 0 80 80" xml:space="preserve" class="icon_social">
  <!-- icon social facebook-->
  <symbol id="icon01" viewBox="0 0 80 80">
    <path id="facebook" d="M36.567,20.65c1.682-1.602,4.076-2.143,6.333-2.211c2.388-0.021,4.774-0.008,7.162-0.008c0.009,2.519,0.01,5.038-0.001,7.557c-1.543-0.003-3.087,0.004-4.63-0.003c-0.978-0.061-1.983,0.681-2.161,1.651c-0.023,1.685-0.008,3.372-0.008,5.057c2.263,0.009,4.526-0.003,6.789,0.006c-0.166,2.438-0.468,4.865-0.823,7.282c-1.999,0.019-3.999-0.002-5.998,0.01c-0.018,7.191,0.009,14.381-0.014,21.572c-2.969,0.012-5.94-0.006-8.909,0.008c-0.056-7.192,0.005-14.387-0.031-21.579c-1.449-0.015-2.898,0.01-4.346-0.012c0.006-2.417,0.002-4.835,0.003-7.252c1.447-0.018,2.896,0.004,4.344-0.01c0.044-2.35-0.044-4.703,0.046-7.051C34.468,23.808,35.177,21.935,36.567,20.65z"></path>
    <circle id="facebookCircle" fill="none" stroke-width="3" stroke-miterlimit="10" cx="40" cy="40" r="34.917"></circle>
  </symbol>
  <!-- icon social instagram-->
  <symbol id="icon02" viewBox="0 0 80 80">
    <path id="instagram" d="M56.627,54.835V36.697h-3.779c0.373,1.176,0.56,2.398,0.56,3.667c0,2.351-0.597,4.521-1.791,6.508s-2.818,3.56-4.87,4.717s-4.292,1.735-6.718,1.735c-3.676,0-6.821-1.264-9.433-3.793c-2.613-2.529-3.919-5.584-3.919-9.167c0-1.269,0.187-2.491,0.56-3.667h-3.947v18.138c0,0.485,0.163,0.891,0.49,1.218c0.327,0.327,0.732,0.49,1.218,0.49h29.923c0.467,0,0.868-0.163,1.204-0.49C56.459,55.726,56.627,55.321,56.627,54.835L56.627,54.835z M48.677,39.916c0-2.314-0.844-4.287-2.533-5.92c-1.689-1.633-3.728-2.449-6.116-2.449c-2.37,0-4.399,0.816-6.088,2.449c-1.689,1.633-2.533,3.606-2.533,5.92c0,2.314,0.844,4.287,2.533,5.92c1.689,1.633,3.718,2.449,6.088,2.449c2.389,0,4.427-0.816,6.116-2.449C47.833,44.203,48.677,42.23,48.677,39.916L48.677,39.916z M56.627,29.839v-4.619c0-0.523-0.187-0.975-0.56-1.358c-0.373-0.383-0.83-0.574-1.372-0.574h-4.87c-0.541,0-0.998,0.191-1.372,0.574s-0.56,0.835-0.56,1.358v4.619c0,0.541,0.187,0.998,0.56,1.372s0.83,0.56,1.372,0.56h4.87c0.541,0,0.998-0.187,1.372-0.56C56.44,30.837,56.627,30.38,56.627,29.839z M61.497,24.017v31.966c0,1.512-0.541,2.808-1.624,3.891c-1.082,1.082-2.379,1.624-3.891,1.624H24.017c-1.512,0-2.808-0.541-3.891-1.624c-1.082-1.082-1.624-2.379-1.624-3.891V24.017c0-1.512,0.541-2.808,1.624-3.891c1.082-1.082,2.379-1.624,3.891-1.624h31.966c1.512,0,2.808,0.541,3.891,1.624C60.956,21.208,61.497,22.505,61.497,24.017L61.497,24.017z"></path>
    <circle id="instagramCircle" fill="none" stroke-width="3" stroke-miterlimit="10" cx="40" cy="40" r="34.917"></circle>
  </symbol>
  <!-- icon social pinterest-->
  <symbol id="icon03" viewBox="0 0 80 80">
    <path id="pinterest" d="M23.315,33.917c0-1.811,0.381-3.607,1.143-5.389s1.854-3.435,3.277-4.958s3.291-2.759,5.605-3.708s4.879-1.423,7.696-1.423c4.57,0,8.321,1.408,11.253,4.225s4.398,6.137,4.398,9.96c0,4.915-1.243,8.975-3.729,12.18c-2.486,3.205-5.698,4.807-9.636,4.807c-1.293,0-2.508-0.302-3.643-0.905s-1.933-1.337-2.393-2.199l-1.725,6.812c-0.144,0.546-0.331,1.099-0.56,1.66c-0.23,0.56-0.481,1.099-0.755,1.617c-0.273,0.517-0.546,1.006-0.819,1.466s-0.546,0.891-0.819,1.293c-0.273,0.402-0.51,0.74-0.711,1.013s-0.388,0.51-0.56,0.711l-0.259,0.345c-0.086,0.115-0.201,0.158-0.345,0.129c-0.144-0.029-0.23-0.115-0.259-0.259c0-0.029-0.022-0.23-0.065-0.604c-0.043-0.374-0.086-0.769-0.129-1.186c-0.043-0.417-0.086-0.956-0.129-1.617c-0.043-0.661-0.057-1.301-0.043-1.919c0.014-0.618,0.057-1.301,0.129-2.048c0.072-0.747,0.18-1.437,0.323-2.07c0.316-1.351,1.38-5.849,3.19-13.495c-0.23-0.46-0.417-1.013-0.56-1.66c-0.144-0.647-0.216-1.171-0.216-1.574l-0.043-0.647c0-1.84,0.467-3.37,1.401-4.592c0.934-1.222,2.062-1.832,3.385-1.832c1.063,0,1.89,0.352,2.479,1.056c0.589,0.704,0.884,1.588,0.884,2.652c0,0.661-0.122,1.473-0.366,2.436c-0.244,0.963-0.568,2.07-0.97,3.32s-0.69,2.264-0.862,3.04c-0.287,1.293-0.036,2.414,0.755,3.363c0.79,0.949,1.847,1.423,3.169,1.423c2.271,0,4.146-1.286,5.626-3.859c1.48-2.573,2.22-5.684,2.22-9.334c0-2.788-0.905-5.066-2.716-6.834c-1.811-1.768-4.34-2.652-7.588-2.652c-3.622,0-6.561,1.164-8.817,3.492s-3.385,5.116-3.385,8.364c0,1.926,0.546,3.55,1.638,4.872c0.374,0.431,0.489,0.891,0.345,1.38c-0.057,0.144-0.144,0.474-0.259,0.992s-0.201,0.848-0.259,0.992c-0.057,0.316-0.201,0.525-0.431,0.625c-0.23,0.101-0.489,0.093-0.776-0.022c-1.696-0.69-2.968-1.875-3.816-3.557C23.739,38.12,23.315,36.158,23.315,33.917z"></path>
    <circle id="pinterestCircle" fill="none" stroke-width="3" stroke-miterlimit="10" cx="40" cy="40" r="34.917"></circle>
  </symbol>
  <!-- icon social thumblr-->
  <symbol id="icon04" viewBox="0 0 80 80">
    <path id="thumblr" d="M25.812,36.146v-6.08c1.713-0.571,3.154-1.356,4.325-2.355c1.17-0.942,2.127-2.17,2.869-3.682c0.742-1.456,1.242-3.269,1.499-5.438h6.123v10.833h10.148v6.723H40.627v10.962c0,2.455,0.128,4.054,0.385,4.796c0.257,0.685,0.742,1.242,1.456,1.67c0.971,0.571,2.055,0.856,3.254,0.856c2.198,0,4.353-0.699,6.466-2.098v6.723c-1.798,0.885-3.454,1.499-4.967,1.841c-1.484,0.343-3.083,0.514-4.796,0.514c-1.941,0-3.682-0.243-5.224-0.728c-1.57-0.542-2.84-1.256-3.811-2.141c-1.028-0.885-1.77-1.856-2.227-2.912c-0.4-0.971-0.599-2.469-0.599-4.496V36.146H25.812z"></path>
    <circle id="thumblrCircle" fill="none" stroke-width="3" stroke-miterlimit="10" cx="40" cy="40" r="34.917"></circle>
  </symbol>
  <!-- icon social twitter-->
  <symbol id="icon05" viewBox="0 0 80 80">
    <path id="twitter" d="M62.547,27.635c-1.585,0.703-3.29,1.178-5.078,1.392c1.825-1.094,3.227-2.827,3.887-4.891c-1.708,1.013-3.601,1.749-5.615,2.145c-1.613-1.718-3.91-2.792-6.453-2.792c-4.883,0-8.841,3.958-8.841,8.841c0,0.693,0.078,1.368,0.229,2.015c-7.348-0.369-13.862-3.889-18.223-9.238c-0.761,1.306-1.197,2.824-1.197,4.445c0,3.067,1.561,5.774,3.933,7.359c-1.449-0.046-2.813-0.444-4.005-1.106c-0.001,0.037-0.001,0.074-0.001,0.111c0,4.284,3.048,7.857,7.092,8.669c-0.742,0.202-1.523,0.31-2.329,0.31c-0.57,0-1.123-0.056-1.663-0.159c1.125,3.512,4.39,6.069,8.259,6.14c-3.026,2.371-6.838,3.785-10.98,3.785c-0.714,0-1.417-0.042-2.109-0.124c3.913,2.509,8.56,3.973,13.553,3.973c16.262,0,25.155-13.472,25.155-25.156c0-0.383-0.009-0.764-0.026-1.144C59.863,30.965,61.362,29.408,62.547,27.635L62.547,27.635z"></path>
    <circle id="twitterCircle" fill="none" stroke-width="3" stroke-miterlimit="10" cx="40" cy="40" r="34.917"></circle>
  </symbol>
</svg>